<svg xmlns="http://www.w3.org/2000/svg" width="124.546" height="32.045" viewBox="0 0 124.546 32.045">
    <defs>
        <clipPath id="clip-path">
            <path id="Rectangle_18053" fill="none" d="M0 0H124.546V32.045H0z"/>
        </clipPath>
        <style>
            .cls-3{fill:#444}.cls-4{fill:#00d8a0}
        </style>
    </defs>
    <g id="Beesiha_logo" transform="translate(0 0)">
        <g id="Groupe_40548" clip-path="url(#clip-path)" transform="translate(0 0)">
            <path id="Tracé_4432" d="M27.084 21.234a1.236 1.236 0 0 0-1.236 1.236 7.1 7.1 0 1 1-14.208 0v-1.531A10.514 10.514 0 0 0 21 10.5V1.235A1.236 1.236 0 0 0 19.769 0h-3.706a1.235 1.235 0 1 0 0 2.471h2.471V10.5a8.031 8.031 0 0 1-16.062 0V2.471h2.471a1.235 1.235 0 0 0 0-2.471H1.236A1.235 1.235 0 0 0 0 1.235V10.5a10.51 10.51 0 0 0 9.169 10.409v1.561a9.575 9.575 0 0 0 19.15 0 1.235 1.235 0 0 0-1.235-1.236" class="cls-3" transform="translate(0 0)"/>
            <path id="Tracé_4433" d="M54.886 10.25h5.65a4.79 4.79 0 0 1 1.7.3 4.649 4.649 0 0 1 1.423.837 3.921 3.921 0 0 1 .974 1.266 3.6 3.6 0 0 1 .356 1.59 3.275 3.275 0 0 1-.576 1.956 3.558 3.558 0 0 1-1.455 1.2v.126a3.9 3.9 0 0 1 1.831 1.3 3.433 3.433 0 0 1 .7 2.176 3.916 3.916 0 0 1-.377 1.736 4.069 4.069 0 0 1-1.025 1.329 4.773 4.773 0 0 1-1.5.858 5.351 5.351 0 0 1-1.81.3h-5.9zm5.565 6.257a2.392 2.392 0 0 0 .942-.179 2.2 2.2 0 0 0 .7-.46 1.919 1.919 0 0 0 .429-.649 2.007 2.007 0 0 0-.418-2.134 2.143 2.143 0 0 0-.669-.46 2.19 2.19 0 0 0-.9-.178H57.25v4.06zm.335 6.527a2.525 2.525 0 0 0 1-.189 2.124 2.124 0 0 0 .732-.5 2.252 2.252 0 0 0 .45-.711 2.2 2.2 0 0 0 .157-.816 2.127 2.127 0 0 0-.157-.806 1.992 1.992 0 0 0-.471-.69 2.425 2.425 0 0 0-.764-.492 2.661 2.661 0 0 0-1.033-.19h-3.45v4.394z" class="cls-3" transform="translate(-8.2 -1.531)"/>
            <path id="Tracé_4434" d="M79.266 23.556a5.568 5.568 0 0 1-1.842 1.988 5.164 5.164 0 0 1-2.929.8 5.436 5.436 0 0 1-2.124-.408 5.038 5.038 0 0 1-1.685-1.14 5.242 5.242 0 0 1-1.108-1.727 6.141 6.141 0 0 1-.021-4.289 5.346 5.346 0 0 1 1.056-1.737 5.031 5.031 0 0 1 3.777-1.621 5.374 5.374 0 0 1 2.124.4 4.517 4.517 0 0 1 1.58 1.109 4.843 4.843 0 0 1 .994 1.717 6.7 6.7 0 0 1 .344 2.2v.189a.987.987 0 0 0-.02.188.664.664 0 0 0-.02.168H71.5a3.262 3.262 0 0 0 .356 1.277 3.009 3.009 0 0 0 .722.9 2.834 2.834 0 0 0 .953.523 3.325 3.325 0 0 0 1.025.168 2.706 2.706 0 0 0 1.653-.481 3.983 3.983 0 0 0 1.067-1.193zM77.11 19.6a2.932 2.932 0 0 0-.2-.7 2.158 2.158 0 0 0-.481-.712 2.806 2.806 0 0 0-.837-.554 3.026 3.026 0 0 0-1.245-.231 2.62 2.62 0 0 0-1.726.6 2.922 2.922 0 0 0-.974 1.6z" class="cls-3" transform="translate(-10.336 -2.303)"/>
            <path id="Tracé_4435" d="M93.164 23.556a5.568 5.568 0 0 1-1.842 1.988 5.164 5.164 0 0 1-2.929.8 5.428 5.428 0 0 1-2.123-.408 5.038 5.038 0 0 1-1.685-1.14 5.242 5.242 0 0 1-1.108-1.727 6.129 6.129 0 0 1-.021-4.289 5.346 5.346 0 0 1 1.056-1.737 5.027 5.027 0 0 1 3.777-1.621 5.374 5.374 0 0 1 2.124.4 4.517 4.517 0 0 1 1.58 1.109 4.843 4.843 0 0 1 .994 1.717 6.7 6.7 0 0 1 .344 2.2v.189a.987.987 0 0 0-.02.188.664.664 0 0 0-.02.168H85.4a3.276 3.276 0 0 0 .356 1.277 3 3 0 0 0 .723.9 2.822 2.822 0 0 0 .952.523 3.325 3.325 0 0 0 1.025.168 2.706 2.706 0 0 0 1.653-.481 3.983 3.983 0 0 0 1.067-1.193zM91.008 19.6a2.932 2.932 0 0 0-.2-.7 2.158 2.158 0 0 0-.481-.712 2.806 2.806 0 0 0-.837-.554 3.026 3.026 0 0 0-1.245-.231 2.62 2.62 0 0 0-1.726.6 2.921 2.921 0 0 0-.973 1.6z" class="cls-3" transform="translate(-12.412 -2.303)"/>
            <path id="Tracé_4436" d="M101.44 26.339a5.367 5.367 0 0 1-1.7-.251 4.868 4.868 0 0 1-1.318-.659 4.378 4.378 0 0 1-1.548-2.019l2.092-.88A2.677 2.677 0 0 0 100 23.859a2.625 2.625 0 0 0 1.443.429 2.353 2.353 0 0 0 1.381-.356.917.917 0 0 0 .126-1.559 3.592 3.592 0 0 0-1.422-.575l-1.466-.356a4.929 4.929 0 0 1-.973-.324 3.956 3.956 0 0 1-.91-.565 2.731 2.731 0 0 1-.68-.837 2.434 2.434 0 0 1-.26-1.161 2.71 2.71 0 0 1 .324-1.339 2.9 2.9 0 0 1 .889-.983 4.246 4.246 0 0 1 1.308-.606 5.8 5.8 0 0 1 1.58-.209 5.9 5.9 0 0 1 1.328.146 4.726 4.726 0 0 1 1.183.439 3.9 3.9 0 0 1 .973.743 3.419 3.419 0 0 1 .68 1.056l-2.051.858a1.87 1.87 0 0 0-.92-.972 2.908 2.908 0 0 0-1.277-.3 2.507 2.507 0 0 0-.6.073 2.138 2.138 0 0 0-.544.209 1.28 1.28 0 0 0-.4.344.766.766 0 0 0 .209 1.12 3.772 3.772 0 0 0 1.119.428l1.569.4a4.633 4.633 0 0 1 2.333 1.2 2.775 2.775 0 0 1 .44 3.15 3.321 3.321 0 0 1-.868 1.046 4.22 4.22 0 0 1-1.35.721 5.429 5.429 0 0 1-1.726.262" class="cls-3" transform="translate(-14.474 -2.303)"/>
            <path id="Tracé_4437" d="M110.723 13.193a1.5 1.5 0 0 1-1.12-.46 1.593 1.593 0 0 1 0-2.219 1.5 1.5 0 0 1 1.12-.46 1.481 1.481 0 0 1 1.1.46 1.593 1.593 0 0 1 0 2.219 1.481 1.481 0 0 1-1.1.46m-1.172 1.757h2.322V25.2h-2.322z" class="cls-3" transform="translate(-16.308 -1.502)"/>
            <path id="Tracé_4438" d="M115.647 10.251h2.323v4.456l-.126 1.654h.126a3.491 3.491 0 0 1 1.3-1.224 3.758 3.758 0 0 1 1.9-.492 4.533 4.533 0 0 1 1.736.3 3.174 3.174 0 0 1 1.215.868 3.636 3.636 0 0 1 .711 1.35 6.13 6.13 0 0 1 .23 1.726v6.34h-2.322v-6.023a2.4 2.4 0 0 0-.618-1.842 2.224 2.224 0 0 0-1.559-.565 2.18 2.18 0 0 0-1.077.262 2.7 2.7 0 0 0-.817.7 3.126 3.126 0 0 0-.523 1 3.9 3.9 0 0 0-.178 1.172v5.294h-2.323z" class="cls-3" transform="translate(-17.278 -1.532)"/>
            <path id="Tracé_4439" d="M135.98 24.749h-.125a4.923 4.923 0 0 1-1.193 1.1 3.276 3.276 0 0 1-1.862.492 4.37 4.37 0 0 1-1.528-.262 3.764 3.764 0 0 1-1.234-.732 3.485 3.485 0 0 1-.827-1.11 3.46 3.46 0 0 1 .02-2.876 3.084 3.084 0 0 1 .9-1.089 4.271 4.271 0 0 1 1.37-.68 5.888 5.888 0 0 1 1.717-.242 6.257 6.257 0 0 1 1.716.2 7.462 7.462 0 0 1 1.046.366v-.4a1.9 1.9 0 0 0-.2-.858 2.092 2.092 0 0 0-.544-.68 2.644 2.644 0 0 0-.785-.439 2.738 2.738 0 0 0-.92-.157 3.117 3.117 0 0 0-1.392.3 3 3 0 0 0-1.1.972l-1.839-1.207a4.717 4.717 0 0 1 1.821-1.517 5.731 5.731 0 0 1 2.468-.512 5.063 5.063 0 0 1 3.527 1.13 4.131 4.131 0 0 1 1.245 3.221V26h-2.281zm0-3.014a4.381 4.381 0 0 0-2.322-.606 2.758 2.758 0 0 0-1.737.5 1.494 1.494 0 0 0-.649 1.214 1.262 1.262 0 0 0 .168.659 1.8 1.8 0 0 0 .429.492 1.784 1.784 0 0 0 .607.314 2.4 2.4 0 0 0 .7.1 2.717 2.717 0 0 0 1.079-.219 2.886 2.886 0 0 0 1.5-1.434 2.348 2.348 0 0 0 .23-1.025" class="cls-3" transform="translate(-19.259 -2.303)"/>
            <path id="Tracé_4440" d="M144.22 27.315a1.585 1.585 0 0 1-1.141-.453 1.464 1.464 0 0 1-.471-1.1 1.5 1.5 0 0 1 .471-1.107 1.566 1.566 0 0 1 1.141-.463 1.605 1.605 0 0 1 1.152.463 1.483 1.483 0 0 1 .481 1.107 1.452 1.452 0 0 1-.481 1.1 1.625 1.625 0 0 1-1.152.453" class="cls-4" transform="translate(-21.306 -3.615)"/>
            <path id="Tracé_4441" d="M33.581 25.837h-5.963l-2.982-5.164 2.982-5.165h5.964l2.98 5.165zM29 23.445h3.2l1.6-2.774-1.6-2.771H29l-1.6 2.774z" class="cls-4" transform="translate(-3.681 -2.317)"/>
        </g>
    </g>
</svg>
