<svg width="40" height="40" viewBox="0 0 40 40" fill="none" xmlns="http://www.w3.org/2000/svg">
    <path
        d="M0 5.05365C0 3.76996 0.450463 2.71093 1.35135 1.87658C2.25224 1.04218 3.42344 0.625 4.86486 0.625C6.28058 0.625 7.42598 1.03575 8.30116 1.85732C9.20205 2.70454 9.65251 3.80847 9.65251 5.16918C9.65251 6.4015 9.21494 7.42841 8.33977 8.24998C7.43888 9.0972 6.25483 9.52081 4.78764 9.52081H4.74903C3.33332 9.52081 2.18791 9.0972 1.31274 8.24998C0.437568 7.40276 0 6.33731 0 5.05365ZM0.50193 38.7499V13.0252H9.07336V38.7499H0.50193ZM13.8224 38.7499H22.3938V24.3857C22.3938 23.4871 22.4968 22.7939 22.7027 22.3061C23.063 21.4332 23.61 20.6951 24.3436 20.0918C25.0772 19.4885 25.9974 19.1868 27.1042 19.1868C29.9871 19.1868 31.4286 21.1252 31.4286 25.0018V38.7499H40V24.0006C40 20.2009 39.0991 17.3191 37.2973 15.3551C35.4955 13.3911 33.1146 12.4091 30.1544 12.4091C26.834 12.4091 24.2471 13.8339 22.3938 16.6837V16.7607H22.3552L22.3938 16.6837V13.0252H13.8224C13.8739 13.8468 13.8996 16.4012 13.8996 20.6887C13.8996 24.9762 13.8739 30.9965 13.8224 38.7499Z"
        fill="#357EF5" />
</svg>