<svg width="40" height="40" viewBox="0 0 40 40" fill="none" xmlns="http://www.w3.org/2000/svg">
    <path
        d="M35.7123 4.29733C34.879 3.44566 33.6456 3.13066 32.4956 3.46399L5.67895 11.2123C4.46562 11.549 3.60562 12.5107 3.37395 13.7307C3.13729 14.974 3.96395 16.554 5.04395 17.214L13.429 22.334C14.289 22.8607 15.399 22.729 16.1106 22.0157L25.7123 12.414C26.1956 11.9123 26.9956 11.9123 27.479 12.414C27.9623 12.8957 27.9623 13.6807 27.479 14.1807L17.8606 23.7823C17.1473 24.4957 17.014 25.6023 17.539 26.464L22.6623 34.8807C23.2623 35.879 24.2956 36.4473 25.429 36.4473C25.5623 36.4473 25.7123 36.4473 25.8456 36.429C27.1456 36.264 28.179 35.379 28.5623 34.129L36.5123 7.51399C36.8623 6.38066 36.5456 5.14733 35.7123 4.29733Z"
        fill="#357EF5" />
    <path opacity="0.4"
        d="M15.7522 31.9039C16.2389 32.3923 16.2389 33.184 15.7522 33.6723L13.4756 35.9473C13.2322 36.1923 12.9122 36.3139 12.5922 36.3139C12.2722 36.3139 11.9522 36.1923 11.7089 35.9473C11.2206 35.459 11.2206 34.6689 11.7089 34.1806L13.9839 31.9039C14.4722 31.4173 15.2639 31.4173 15.7522 31.9039ZM14.4461 25.5906C14.9327 26.0789 14.9327 26.8706 14.4461 27.3589L12.1694 29.6339C11.9261 29.8789 11.6061 30.0006 11.2861 30.0006C10.9661 30.0006 10.6461 29.8789 10.4027 29.6339C9.91441 29.1456 9.91441 28.3556 10.4027 27.8673L12.6777 25.5906C13.1661 25.1039 13.9577 25.1039 14.4461 25.5906ZM8.17741 23.6033C8.66407 24.0916 8.66407 24.8833 8.17741 25.3716L5.90074 27.6466C5.65741 27.8916 5.33741 28.0133 5.01741 28.0133C4.69741 28.0133 4.37741 27.8916 4.13407 27.6466C3.64574 27.1583 3.64574 26.3683 4.13407 25.8799L6.40907 23.6033C6.89741 23.1166 7.68907 23.1166 8.17741 23.6033Z"
        fill="#357EF5" />
</svg>